<?xml version="1.0" encoding="utf-8"?>
<svg viewBox="0 0.0009 499.9993 495.2157" width="499.999px" height="495.216px" xmlns="http://www.w3.org/2000/svg">
  <g transform="matrix(1, 0, 0, 1, 0, 1.1368683772161603e-13)">
    <path d="M 225.894 1.028 C 219.449 2.587 207.55 7.474 196.713 12.998 C 180.493 21.215 171.073 27.518 156.057 39.984 C 152.374 43.03 149.611 44.872 149.895 44.163 C 150.249 43.384 150.745 41.968 151.028 40.976 C 152.799 35.451 156.553 26.102 160.661 17.39 C 163.211 11.865 165.477 6.341 165.69 5.066 C 166.044 3.082 165.902 2.728 164.627 2.728 C 161.582 2.728 150.886 14.415 144.795 24.331 C 143.591 26.314 140.616 31.768 138.066 36.585 C 135.587 41.401 133.25 45.367 132.896 45.367 C 130.913 45.58 127.725 35.522 127.654 28.864 C 127.654 25.039 126.45 21.144 125.246 21.144 C 122.626 21.144 113.205 31.91 108.885 39.843 C 105.697 45.651 103.218 47.563 92.523 52.663 C 83.032 57.267 78.499 61.162 75.028 67.678 C 71.345 74.691 68.654 77.028 63.342 77.807 C 54.771 79.011 46.484 84.607 32.319 98.631 C 18.011 112.867 16.17 117.117 14.328 139.782 C 13.903 145.307 13.053 152.744 12.486 156.427 C 11.92 160.11 11.212 164.36 10.999 165.777 C 10.645 168.114 10.857 168.681 13.053 170.876 C 14.47 172.293 17.019 173.78 19.357 174.489 C 24.032 175.976 38.127 176.613 47.476 175.764 C 51.017 175.409 53.992 175.409 53.992 175.693 C 53.992 176.047 51.584 181.43 48.609 187.804 C 44.076 197.437 41.101 205.299 38.552 214.436 C 38.127 215.782 36.993 216.49 32.744 217.836 C 22.332 221.236 -2.671 234.339 0.233 234.906 C 1.366 235.118 6.324 233.418 21.765 227.469 C 26.865 225.486 32.035 223.644 33.31 223.431 L 35.577 222.865 L 35.577 226.335 C 35.506 236.11 32.248 241.28 20.986 249.638 C 9.087 258.421 5.404 261.962 8.166 261.962 C 8.662 261.962 13.478 259.271 18.932 256.013 C 24.386 252.755 29.556 249.922 30.406 249.638 C 31.823 249.142 32.106 249.567 33.735 255.021 C 36.285 263.521 37.772 271.808 37.843 277.474 C 37.843 282.149 37.631 282.928 34.16 289.727 C 30.548 296.81 27.077 305.097 27.077 306.656 C 27.077 308.426 29.556 305.239 34.727 296.527 C 37.702 291.569 40.535 287.461 40.889 287.461 C 41.314 287.461 42.872 289.586 44.43 292.277 C 48.184 298.723 53.213 306.231 56.613 310.339 C 61.642 316.43 65.112 323.513 69.433 336.687 C 76.233 357.086 85.157 376.422 97.481 397.104 C 107.822 414.457 124.042 437.548 129.354 442.506 C 130.346 443.497 131.196 444.489 131.196 444.701 C 131.196 444.985 127.867 447.322 123.83 449.943 C 111.789 457.592 108.247 462.763 108.247 472.325 C 108.247 478.558 109.735 482.524 112.426 483.799 C 114.268 484.649 115.684 484.366 122.484 481.745 C 122.909 481.603 124.538 482.595 126.096 483.941 C 129.354 486.915 132.117 487.199 137.925 485.357 C 140.404 484.507 144.37 484.153 151.382 484.082 L 161.298 484.011 L 166.894 481.32 C 177.093 476.433 187.647 467.225 194.942 456.742 C 199.333 450.438 200.254 450.226 221.007 449.872 C 232.481 449.589 237.439 449.73 237.439 450.297 C 237.439 450.722 234.323 452.492 230.569 454.334 C 214.632 461.771 211.587 464.038 208.329 470.554 C 206.487 474.379 206.204 475.724 206.204 480.612 C 206.204 483.657 206.558 487.057 206.912 488.049 C 207.904 490.669 210.383 492.157 213.712 492.157 C 215.27 492.157 217.961 492.865 219.732 493.715 C 222.636 495.132 223.982 495.273 233.544 495.202 C 253.093 495.132 268.817 492.015 276.041 486.845 C 284.753 480.682 294.103 469.137 294.103 464.746 C 294.103 463.896 294.953 462.267 295.944 461.063 C 298.848 457.592 306.144 455.963 324.347 454.617 C 337.804 453.626 338.796 453.909 339.646 459.434 C 340.071 462.196 340.708 463.471 341.912 464.25 C 343.895 465.525 344.816 465.313 351.616 462.267 C 357.495 459.575 358.557 459.859 358.557 464.108 C 358.557 468.571 359.69 469.066 366.773 467.65 C 369.89 467.083 378.247 466.304 385.472 466.021 C 394.042 465.596 399.567 465.029 401.479 464.321 C 408.491 461.771 413.237 458.584 420.178 451.926 C 424.428 447.818 428.678 445.764 434.981 444.701 C 446.597 442.789 462.676 432.023 469.617 421.611 C 480.95 404.612 492.92 378.405 497.453 360.415 C 502.977 338.599 499.294 300.564 488.528 267.983 C 485.624 259.129 479.816 245.247 476.416 238.943 C 475.212 236.606 473.3 232.639 472.238 230.089 C 462.18 205.937 445.96 184.334 425.845 168.256 C 400.771 148.211 379.239 136.241 341.983 121.721 C 327.746 116.196 325.197 114.142 318.255 102.456 C 311.314 90.91 301.61 81.136 290.986 75.045 C 288.153 73.486 282.062 70.795 277.458 69.095 C 267.188 65.341 265.488 64.491 258.688 59.746 C 252.172 55.213 247.214 52.663 242.681 51.529 C 231.702 48.838 235.173 46.713 258.688 41.33 C 261.592 40.693 265.417 39.489 267.188 38.709 L 270.375 37.364 L 268.392 35.664 C 267.329 34.743 263.859 33.114 260.6 32.051 C 255.147 30.21 254.013 30.068 242.043 30.139 C 226.957 30.139 217.324 31.627 204.291 36.089 C 199.758 37.576 195.792 38.78 195.438 38.639 C 194.375 38.284 209.604 24.189 219.803 15.973 C 225.398 11.511 231.277 6.553 232.835 4.924 C 235.598 2.02 235.598 1.878 234.323 0.887 C 232.623 -0.317 231.277 -0.317 225.894 1.028 Z M 177.235 39.205 C 177.235 39.347 174.827 44.234 171.852 50.042 C 168.877 55.992 166.61 61.304 166.752 62.154 C 166.965 63.57 167.248 63.5 174.402 60.525 C 178.51 58.825 185.663 55.779 190.338 53.725 C 203.229 48.13 215.482 44.305 215.482 45.934 C 215.482 46.359 213.924 48.625 211.941 51.034 C 206.7 57.479 207.337 58.754 214.845 57.337 C 224.973 55.283 242.043 60.666 250.897 68.599 L 254.792 72.07 L 249.055 72.141 C 241.477 72.141 235.244 74.053 229.79 78.09 C 223.132 82.978 217.82 91.406 220.44 93.035 C 220.795 93.248 223.132 93.602 225.682 93.885 L 230.286 94.31 L 225.044 98.135 C 214.703 105.643 217.607 107.768 236.306 106.209 C 242.822 105.643 247.072 105.572 247.497 105.997 C 248.205 106.705 243.956 108.759 232.977 112.938 C 228.869 114.496 226.39 115.771 226.957 116.055 C 227.452 116.338 231.986 117.755 236.944 119.242 C 246.86 122.217 246.93 122.642 238.148 123.421 C 227.523 124.342 227.523 124.342 240.06 130.079 C 252.313 135.674 259.042 139.287 258.405 139.924 C 257.909 140.42 249.126 139.074 239.564 136.949 C 229.011 134.612 222.849 134.045 222.353 135.391 C 221.22 138.437 230.498 149.415 240.627 156.781 C 249.976 163.652 258.546 171.23 265.275 178.738 C 285.036 200.625 298.565 225.273 306.144 253.109 C 307.702 258.917 309.189 264.016 309.331 264.441 C 309.543 264.796 309.543 259.058 309.402 251.692 C 309.189 240.43 308.835 236.818 307.277 229.664 C 304.089 215.074 299.769 202.679 291.694 185.325 C 288.72 178.809 287.87 179.305 301.185 178.88 C 308.552 178.597 311.102 178.172 316.13 176.472 C 323.851 173.851 328.171 170.947 329.305 167.76 C 330.721 163.581 330.367 147.574 328.525 133.904 C 328.101 131.07 328.384 131.07 335.538 133.833 C 353.882 140.845 385.118 159.119 401.763 172.435 C 410.05 179.093 425.703 194.887 432.857 203.883 C 439.373 212.028 447.872 224.565 452.901 233.277 C 458.001 242.201 465.934 258.421 465.155 258.421 C 465.013 258.421 462.534 255.021 459.63 250.771 C 443.552 227.54 424.357 206.078 406.012 190.779 C 395.601 182.138 381.718 171.443 378.814 169.885 C 373.856 167.264 376.477 170.876 390.43 186.175 C 417.558 215.782 427.615 230.089 438.24 254.03 C 447.802 275.562 455.026 307.081 454.814 325.992 C 454.743 332.154 453.822 334.208 453.185 329.604 C 451.06 315.155 439.444 279.599 436.823 279.386 C 435.831 279.316 435.194 286.186 435.123 299.219 C 435.052 314.163 433.99 324.08 431.794 330.667 C 426.482 346.532 416.07 362.54 398.221 382.443 C 391.492 389.95 388.588 393.704 389.509 393.704 C 389.793 393.704 393.263 391.934 397.159 389.809 C 412.883 381.168 417.345 379.184 417.345 380.743 C 417.345 381.663 413.449 387.826 407.641 396.113 C 404.383 400.716 401.763 404.895 401.763 405.391 C 401.763 406.666 404.313 405.887 410.616 402.771 C 426.27 394.838 426.553 399.229 411.75 418.778 C 407.358 424.515 403.888 429.331 404.029 429.473 C 404.1 429.615 410.121 429.261 417.345 428.694 C 432.927 427.561 441.427 427.419 441.427 428.34 C 441.427 429.473 432.998 433.156 427.474 434.431 C 419.257 436.414 406.792 435.635 394.538 432.377 C 388.022 430.677 381.718 429.544 375.556 428.977 L 366.348 428.198 L 373.927 424.019 C 381.576 419.84 384.055 418.07 384.055 416.936 C 384.055 415.307 375.698 417.645 350.907 426.215 C 333.838 432.165 317.759 437.123 313.014 437.973 C 308.481 438.752 310.535 437.123 319.176 433.015 C 323.567 430.96 330.084 427.419 333.767 425.153 C 352.749 413.466 376.973 391.58 376.973 386.197 C 376.973 385.276 376.618 384.497 376.264 384.497 C 375.202 384.497 366.844 389.809 359.619 395.192 C 347.083 404.4 330.509 414.528 332.067 411.978 C 332.35 411.483 335.254 407.233 338.371 402.558 C 344.745 393.138 351.616 380.105 355.441 370.26 C 360.257 357.794 364.932 337.75 363.019 337.75 C 362.311 337.75 356.503 347.311 350.058 358.998 C 342.62 372.385 329.234 391.225 311.456 413.182 C 288.72 441.302 282.345 451.359 280.716 461.488 C 279.866 466.729 277.741 470.2 271.65 475.937 C 266.975 480.399 263.575 482.453 261.309 482.099 C 258.688 481.745 259.042 479.266 262.23 475.441 C 268.887 467.367 263.575 468.358 247.001 478.345 C 240.839 482.028 235.385 485.074 234.89 485.074 C 233.26 485.074 233.756 482.666 236.023 479.62 C 238.289 476.504 241.193 474.166 245.443 472.041 C 247.639 470.908 248.064 470.341 247.922 468.854 C 247.78 467.296 247.285 466.942 245.301 466.8 C 242.752 466.517 236.094 468.642 231.844 471.121 C 225.115 474.874 218.882 477.991 217.891 477.991 C 215.695 477.991 217.324 475.512 221.503 472.608 C 223.84 470.979 230.498 467.083 236.306 464.038 C 242.043 460.992 247.922 457.521 249.339 456.317 L 251.888 454.122 L 249.693 450.651 C 248.489 448.739 246.364 444.772 244.947 441.797 C 241.831 435.139 237.369 430.111 230.781 425.577 C 225.044 421.753 220.086 416.724 216.899 411.483 C 211.941 403.479 207.833 405.179 208.824 414.811 L 209.32 419.486 L 207.125 417.928 C 205.991 417.078 202.875 414.032 200.254 411.199 C 194.446 404.895 186.513 397.954 185.168 397.954 C 183.468 397.954 184.743 403.054 188.142 409.853 C 191.471 416.511 195.225 421.894 201.529 429.119 C 203.725 431.598 205.425 433.794 205.283 433.935 C 204.716 434.431 195.013 428.765 189.984 424.94 C 187.08 422.744 179.926 416.299 174.047 410.633 C 168.239 404.966 162.644 399.796 161.652 399.158 C 157.828 396.538 157.19 398.237 159.527 404.825 C 160.307 407.091 160.944 409.783 160.944 410.845 L 160.944 412.828 L 158.253 411.483 C 150.815 407.729 108.743 372.952 99.181 362.752 C 93.444 356.59 83.032 332.508 83.032 325.425 C 83.032 322.805 83.386 322.309 87.99 318.413 C 90.257 316.501 90.257 316.43 88.982 315.013 C 88.203 314.163 85.157 312.251 82.111 310.764 C 71.912 305.593 61.925 294.26 57.038 282.149 C 52.859 271.949 53.638 269.966 66.387 256.296 C 79.349 242.484 85.724 234.693 84.945 233.843 C 84.165 233.135 79.916 236.818 67.096 249.213 C 60.296 255.8 54.134 261.537 53.355 261.962 C 52.009 262.6 51.726 262.458 51.088 260.758 C 50.592 259.696 50.238 254.384 50.167 248.93 C 50.097 240.855 50.309 239.014 51.159 238.518 C 51.726 238.235 59.446 234.41 68.371 230.16 C 77.224 225.84 84.449 222.015 84.449 221.59 C 84.449 220.598 82.395 221.165 72.408 224.565 C 53.213 231.223 50.451 231.86 51.017 229.381 C 51.159 228.814 51.655 226.477 52.151 224.281 C 52.646 221.944 53.638 219.536 54.63 218.544 C 56.33 216.632 61.713 214.011 69.433 211.32 C 75.099 209.266 74.958 209.266 65.537 210.682 C 55.834 212.099 55.55 211.886 58.029 205.087 C 59.021 202.254 60.863 197.933 62.138 195.383 C 64.617 190.425 73.895 176.118 79.845 168.114 C 99.748 141.199 107.751 124.767 110.939 104.368 L 111.93 97.993 L 107.751 102.597 C 103.148 107.626 97.269 115.63 93.586 121.721 C 89.903 127.812 86.715 131.566 83.811 132.983 C 79.278 135.32 63.837 138.72 58.242 138.72 C 55.834 138.649 55.834 138.649 57.18 137.516 C 58.384 136.595 71.416 130.15 80.553 126.042 L 83.386 124.767 L 77.012 123.917 C 63.696 122.146 63.908 122.642 75.312 119.1 C 80.907 117.33 85.582 115.842 85.724 115.771 C 85.794 115.63 83.103 114.496 79.703 113.222 C 70.495 109.751 63.908 106.776 63.908 105.926 C 63.908 105.501 66.316 105.501 70.85 105.855 C 80.695 106.776 88.486 106.634 89.478 105.643 C 90.965 104.155 89.123 101.606 83.811 97.852 L 78.782 94.31 L 83.528 93.885 C 86.149 93.602 88.486 93.177 88.84 92.823 C 89.123 92.539 88.628 91.123 87.636 89.706 C 85.369 86.307 85.369 83.19 87.707 77.24 C 90.257 70.795 94.223 65.058 97.198 63.5 C 100.385 61.871 105.343 61.871 112.072 63.641 C 118.376 65.27 122.696 65.483 122.696 64.137 C 122.696 63.57 121.067 61.304 119.155 59.108 C 117.172 56.912 115.613 54.646 115.613 54.079 C 115.613 52.238 117.243 49.475 118.376 49.475 C 120.501 49.475 131.408 61.587 138.633 71.928 C 139.27 72.849 140.191 73.557 140.758 73.557 C 142.245 73.557 145.787 70.228 150.036 64.916 C 157.048 56.133 162.148 50.821 169.231 44.801 C 175.535 39.418 177.235 38.214 177.235 39.205 Z M 271.083 82.411 C 288.436 87.015 303.381 101.535 311.314 121.367 C 317.476 136.737 315.847 140.349 307.631 129.583 C 301.398 121.438 297.432 117.259 289.995 111.097 C 272.783 96.718 254.155 86.731 242.397 85.669 L 237.085 85.173 L 239.918 83.827 C 245.514 81.278 249.48 80.64 258.334 80.994 C 263.009 81.136 268.746 81.773 271.083 82.411 Z M 129.425 401.212 C 151.17 417.007 180.989 436.414 188.213 439.46 C 190.621 440.452 190.834 440.735 190.409 442.718 C 189.771 445.835 184.034 454.192 178.297 460.142 C 173.977 464.746 164.061 472.183 163.352 471.404 C 163.211 471.262 163.848 468.996 164.84 466.375 C 166.752 461.346 167.035 458.513 165.831 457.805 C 164.698 457.096 159.244 460.142 151.595 465.808 C 147.841 468.571 143.237 471.687 141.395 472.679 C 138.42 474.308 137.925 474.379 137.712 473.387 C 137.57 472.75 138.987 470.483 140.899 468.358 C 146.212 462.267 148.195 459.505 148.195 457.946 C 148.195 455.538 143.308 456.884 131.408 462.692 C 125.317 465.667 120.288 468.004 120.147 467.862 C 120.005 467.792 122.059 465.879 124.609 463.613 C 129.85 459.15 137.429 454.972 145.22 452.209 C 153.932 449.164 157.048 445.976 152.161 444.985 C 148.903 444.418 147.77 443.001 145.432 436.698 C 143.166 430.677 138.491 423.594 130.842 414.67 C 119.722 401.708 112.072 391.65 112.072 390.092 C 112.072 388.888 115.755 391.296 129.425 401.212 Z M 387.243 440.452 C 391.563 440.806 397.017 441.514 399.354 441.939 C 403.746 442.718 408.137 444.772 408.137 446.118 C 408.137 448.455 398.08 455.892 395.884 455.113 C 395.317 454.972 395.034 453.272 395.034 450.297 L 395.034 445.764 L 392.767 445.551 C 390.288 445.339 386.747 446.897 378.389 452.068 C 369.96 457.238 368.615 456.246 373.431 448.314 C 374.918 445.764 375.981 443.426 375.768 443.072 C 375.556 442.718 373.148 442.576 370.315 442.718 C 365.427 443.072 361.886 444.347 356.078 447.818 C 354.52 448.739 354.732 448.314 357.14 446.118 C 360.399 443.143 363.232 441.372 366.348 440.381 C 368.898 439.602 378.247 439.672 387.243 440.452 Z" fill="currentColor" stroke="none"/>
    <path d="M 186.088 121.296 C 183.397 122.5 178.51 127.741 176.456 131.779 C 172.985 138.507 172.702 144.953 175.535 153.382 C 178.935 163.298 187.151 169.46 198.413 170.451 C 204.291 170.947 207.054 169.531 209.249 164.998 C 211.162 161.031 211.799 151.965 210.524 145.59 C 207.62 130.575 194.588 117.542 186.088 121.296 Z" fill="currentColor" stroke="none"/>
    <path d="M 135.091 202.537 C 132.117 203.387 127.159 207.707 124.68 211.603 C 121.563 216.561 122.201 221.732 126.238 224.919 C 130.771 228.531 140.262 221.59 142.953 212.665 C 144.37 207.849 144.228 205.512 142.174 203.529 C 140.404 201.687 138.704 201.474 135.091 202.537 Z" fill="currentColor" stroke="none"/>
    <path d="M 91.602 204.803 C 86.432 211.107 96.206 226.831 105.414 226.902 C 110.726 226.902 110.797 227.185 113.843 252.046 C 114.48 257.288 115.826 264.441 116.676 267.983 C 118.73 275.845 118.659 276.057 110.585 280.378 C 102.723 284.628 100.385 286.54 101.589 287.957 C 102.581 289.161 105.343 289.09 120.501 287.39 C 126.946 286.682 130.346 286.682 137.854 287.461 C 153.932 289.019 155.774 289.09 158.394 288.169 C 159.74 287.744 161.723 286.398 162.786 285.124 C 164.485 283.07 164.556 282.857 163.352 282.007 C 162.573 281.44 160.094 281.086 156.978 281.086 C 146.707 281.086 131.833 274.358 128.717 268.266 C 127.159 265.291 125.175 256.367 122.342 240.005 C 118.588 217.765 118.092 215.569 116.18 213.303 C 115.543 212.524 115.189 212.595 114.126 213.515 C 112.285 215.215 110.23 214.436 104.989 209.974 C 98.26 204.166 93.586 202.466 91.602 204.803 Z" fill="currentColor" stroke="none"/>
    <path d="M 170.86 205.299 C 170.86 206.574 176.951 208.487 189.63 211.249 C 214.632 216.632 222.849 218.969 239.352 225.556 C 250.755 230.089 253.73 230.798 253.73 229.31 C 253.73 228.035 251.818 226.831 244.876 223.431 C 233.685 218.048 217.324 211.957 208.399 209.832 C 191.046 205.795 170.86 203.316 170.86 205.299 Z" fill="currentColor" stroke="none"/>
    <path d="M 167.885 219.678 C 169.089 221.094 175.889 225.131 186.797 230.798 C 214.349 245.247 226.461 252.33 242.397 263.379 C 251.464 269.683 253.73 270.958 253.73 269.683 C 253.73 268.691 247.71 262.883 242.752 259.058 C 237.369 254.88 223.486 245.672 214.774 240.36 C 202.379 232.781 175.535 220.244 169.231 218.969 C 167.248 218.544 167.035 218.615 167.885 219.678 Z" fill="currentColor" stroke="none"/>
    <path d="M 340.141 225.84 C 340.141 251.692 333.484 292.915 325.621 315.863 C 322.151 326.063 311.597 347.028 304.869 357.227 C 290.561 379.043 274.341 395.9 253.234 410.774 C 248.843 413.891 245.231 416.724 245.231 417.149 C 245.231 417.999 247.922 417.574 253.376 415.874 C 267.542 411.412 291.482 393.988 304.089 378.972 C 321.655 358.007 335.963 327.692 341.204 300.564 C 345.312 279.032 345.949 244.397 342.62 226.548 C 340.991 218.048 340.141 217.836 340.141 225.84 Z" fill="currentColor" stroke="none"/>
    <path d="M 159.527 228.602 C 159.527 229.239 170.01 236.889 180.068 243.547 C 196.429 254.455 209.674 265.362 226.248 281.582 C 233.119 288.311 239.139 293.836 239.564 293.836 C 240.06 293.836 239.777 292.773 238.785 291.144 C 227.665 272.445 197.492 246.522 171.852 233.702 C 162.077 228.814 159.527 227.752 159.527 228.602 Z" fill="currentColor" stroke="none"/>
    <path d="M 162.361 239.156 C 162.361 240.855 167.673 247.018 183.538 263.733 C 194.8 275.562 204.858 287.39 210.029 294.827 C 214.42 301.131 216.191 302.831 216.191 300.635 C 216.191 295.96 200.467 273.578 188.072 260.546 C 178.085 249.992 162.361 236.96 162.361 239.156 Z" fill="currentColor" stroke="none"/>
  </g>
</svg>