<?xml version="1.0" encoding="utf-8"?>
<svg viewBox="643.8291 132.6053 92.4489 92.3797" width="92.4489" height="92.3797" xmlns="http://www.w3.org/2000/svg">
  <g>
    <path class="ef-header__logo-monogram-front" d="M 690.088 134.135 C 655.701 134.135 634.209 171.36 651.402 201.14 C 668.596 230.92 711.58 230.92 728.773 201.14 C 732.695 194.347 734.76 186.64 734.758 178.795 C 734.73 154.138 714.745 134.158 690.088 134.135 M 690.088 224.985 C 654.531 224.985 632.308 186.494 650.086 155.7 C 667.865 124.907 712.311 124.907 730.09 155.7 C 734.144 162.722 736.278 170.687 736.278 178.795 C 736.25 204.294 715.586 224.958 690.088 224.985" fill="currentColor"/>
    <path class="ef-header__logo-monogram-front" d="M 690.088 143.345 C 662.791 143.345 645.73 172.895 659.379 196.535 C 673.027 220.175 707.149 220.175 720.797 196.535 C 723.911 191.142 725.55 185.023 725.548 178.795 C 725.526 159.222 709.661 143.362 690.088 143.345 M 690.088 221.435 C 657.264 221.435 636.748 185.902 653.161 157.475 C 669.573 129.049 710.603 129.049 727.015 157.475 C 730.758 163.958 732.728 171.311 732.728 178.795 C 732.706 202.336 713.628 221.413 690.088 221.435" fill="currentColor"/>
    <path class="ef-header__logo-monogram-front" d="M 707.618 180.705 C 706.118 180.135 707.018 181.185 707.338 181.405 C 709.558 182.985 716.088 187.405 719.178 189.405 C 719.618 189.695 719.678 190.015 719.178 190.545 C 716.758 193.115 712.178 190.165 710.358 189.165 C 708.248 187.985 703.208 184.185 702.818 184.595 C 702.668 184.755 702.958 186.175 706.058 189.505 C 705.742 189.821 705.408 190.119 705.058 190.395 C 705.058 190.395 706.568 192.185 707.568 193.305 C 707.978 193.745 708.998 194.705 709.198 194.655 C 709.398 194.605 710.738 193.125 711.198 193.125 C 711.478 193.115 712.098 193.555 712.558 193.295 C 713.183 193.161 713.835 193.253 714.398 193.555 C 715.108 193.885 714.968 195.535 714.778 194.805 C 714.588 194.075 713.178 194.095 712.468 194.915 C 712.098 195.303 711.643 195.597 711.138 195.775 C 710.668 195.875 710.488 196.015 710.668 196.135 C 711.473 196.416 712.244 196.784 712.968 197.235 C 713.148 197.585 713.068 197.705 713.148 197.885 C 714.218 198.265 714.478 198.595 714.148 199.675 C 714.054 199.948 713.937 200.213 713.798 200.465 C 713.638 200.175 713.698 199.225 712.698 199.005 C 712.598 198.985 712.418 199.135 712.228 199.135 C 711.407 198.898 710.652 198.478 710.018 197.905 C 709.788 197.565 709.848 198.105 710.018 198.435 C 710.868 199.995 710.688 200.925 710.488 200.995 C 710.288 201.065 710.178 200.925 710.048 201.225 C 709.743 202.158 709.096 202.941 708.238 203.415 C 708.568 202.667 708.729 201.854 708.708 201.035 C 708.548 200.955 708.418 201.065 708.228 200.955 C 707.98 200.577 707.838 200.138 707.818 199.685 C 707.838 199.035 708.188 198.825 708.188 198.435 C 708.156 198.145 708.06 197.865 707.908 197.615 C 707.665 198.073 707.373 198.502 707.038 198.895 C 706.248 199.725 706.388 199.915 705.568 199.585 C 705.408 199.515 704.308 201.315 704.308 201.315 C 704.089 200.795 704.013 200.225 704.088 199.665 C 704.168 199.355 704.468 199.185 704.678 198.955 C 704.888 198.725 704.308 198.385 704.588 197.955 C 706.178 196.425 706.328 196.955 706.738 195.955 C 707.008 195.285 706.478 194.835 705.918 194.165 C 704.528 192.515 704.478 192.515 703.658 191.515 C 703.328 191.745 703.138 191.965 702.658 192.315 C 701.108 190.035 699.778 187.985 698.328 187.445 C 696.878 186.905 696.258 187.755 696.258 188.635 C 696.328 190.185 699.448 193.535 699.448 193.535 C 700.54 194.598 701.543 195.749 702.448 196.975 C 702.709 197.414 702.879 197.9 702.948 198.405 C 703.017 199.101 702.973 199.804 702.818 200.485 C 702.698 201.135 702.558 201.645 702.558 201.645 C 702.558 201.645 702.088 199.975 701.988 199.775 C 701.688 199.205 701.628 199.775 701.178 200.895 C 700.793 201.776 700.335 202.622 699.808 203.425 L 699.808 200.565 C 699.768 199.825 699.708 198.825 699.378 199.565 C 698.953 200.372 698.482 201.153 697.968 201.905 C 697.968 201.905 697.958 201.315 697.908 200.615 C 697.789 199.425 697.541 198.252 697.168 197.115 C 696.938 196.745 695.958 194.925 694.708 194.745 C 693.458 194.565 693.368 196.745 693.458 197.215 C 693.598 198.007 693.823 198.781 694.128 199.525 C 694.248 199.755 695.208 201.575 695.338 201.915 C 696.201 203.921 695.615 206.255 693.908 207.615 C 693.799 206.483 693.54 205.37 693.138 204.305 C 692.888 203.945 692.548 203.715 692.298 204.065 C 691.665 205.264 690.915 206.396 690.058 207.445 C 689.201 206.396 688.451 205.264 687.818 204.065 C 687.568 203.715 687.228 203.945 686.978 204.305 C 686.581 205.37 686.332 206.484 686.238 207.615 C 684.542 206.231 683.996 203.876 684.908 201.885 C 685.038 201.495 685.998 199.725 686.118 199.495 C 686.423 198.751 686.647 197.977 686.788 197.185 C 686.868 196.715 686.758 194.525 685.538 194.715 C 684.318 194.905 683.308 196.665 683.078 197.085 C 682.681 198.219 682.409 199.393 682.268 200.585 C 682.208 201.285 682.208 201.875 682.208 201.875 C 681.694 201.123 681.223 200.342 680.798 199.535 C 680.458 198.795 680.368 199.795 680.368 200.535 L 680.368 203.405 C 679.84 202.601 679.378 201.755 678.988 200.875 C 678.548 199.755 678.488 199.185 678.188 199.755 C 678.078 199.955 677.618 201.625 677.618 201.625 C 677.618 201.625 677.478 201.115 677.358 200.465 C 677.205 199.783 677.158 199.082 677.218 198.385 C 677.296 197.882 677.465 197.398 677.718 196.955 C 678.626 195.732 679.629 194.582 680.718 193.515 C 680.718 193.515 683.838 190.165 683.908 188.615 C 683.908 187.715 683.238 186.865 681.778 187.395 C 680.318 187.925 678.998 189.985 677.438 192.265 C 676.978 191.915 676.778 191.695 676.438 191.465 C 675.618 192.455 675.568 192.435 674.178 194.115 C 673.618 194.785 673.078 195.235 673.358 195.905 C 673.768 196.905 673.918 196.385 675.508 197.905 C 675.788 198.295 675.208 198.635 675.418 198.905 C 675.628 199.175 675.928 199.305 676.008 199.615 C 676.096 200.187 676.027 200.771 675.808 201.305 C 675.808 201.305 674.708 199.505 674.548 199.575 C 673.718 199.885 673.858 199.715 673.078 198.885 C 672.752 198.487 672.47 198.055 672.238 197.595 C 672.079 197.843 671.98 198.123 671.948 198.415 C 671.938 198.805 672.328 199.015 672.328 199.665 C 672.308 200.118 672.166 200.557 671.918 200.935 C 671.728 201.015 671.598 200.935 671.438 201.015 C 671.417 201.834 671.578 202.647 671.908 203.395 C 671.009 202.926 670.328 202.127 670.008 201.165 C 669.888 200.865 669.648 200.965 669.578 200.935 C 669.508 200.905 669.188 199.945 670.038 198.375 C 670.248 198.045 670.308 197.505 670.038 197.845 C 669.403 198.416 668.647 198.836 667.828 199.075 C 667.638 199.075 667.458 198.945 667.348 198.945 C 666.338 199.165 666.418 200.115 666.258 200.405 C 666.113 200.156 665.996 199.891 665.908 199.615 C 665.608 198.615 665.908 198.245 666.878 197.855 C 666.958 197.675 666.848 197.555 667.058 197.205 C 667.78 196.753 668.552 196.384 669.358 196.105 C 669.538 195.985 669.318 195.845 668.888 195.745 C 668.383 195.567 667.928 195.273 667.558 194.885 C 666.848 194.065 665.448 194.025 665.248 194.775 C 665.048 195.525 664.918 193.855 665.628 193.525 C 666.191 193.222 666.843 193.13 667.468 193.265 C 667.918 193.525 668.538 193.095 668.828 193.095 C 669.288 193.125 670.618 194.575 670.878 194.625 C 671.138 194.675 672.098 193.715 672.508 193.275 C 673.528 192.155 675.008 190.365 675.008 190.365 C 674.66 190.086 674.326 189.789 674.008 189.475 C 677.118 186.145 677.408 184.725 677.258 184.565 C 676.858 184.135 671.828 187.955 669.708 189.135 C 667.898 190.135 663.318 193.085 660.898 190.515 C 660.398 189.985 660.458 189.665 660.898 189.375 C 663.988 187.375 670.528 182.945 672.748 181.375 C 673.068 181.155 673.958 180.105 672.468 180.675 C 668.885 182.24 665.036 183.102 661.128 183.215 C 656.998 183.345 655.358 180.785 656.718 180.345 C 657.268 180.165 669.078 176.825 669.078 176.825 C 669.078 176.825 670.548 176.245 669.448 176.135 C 668.348 176.025 663.438 176.065 661.348 175.215 C 658.788 174.165 658.338 171.885 658.938 171.885 C 664.078 172.155 668.898 172.025 669.198 172.025 L 669.288 172.025 C 669.288 172.025 669.908 171.875 669.348 171.385 C 668.788 170.895 665.088 167.805 664.298 167.015 C 662.258 164.965 663.648 161.965 663.988 162.285 C 666.417 164.556 669.126 166.508 672.048 168.095 C 672.318 168.155 672.248 167.535 672.048 167.095 C 671.321 166.121 670.732 165.051 670.298 163.915 C 669.308 160.155 669.558 157.805 671.658 156.915 C 672.028 156.755 672.158 156.915 672.658 158.115 C 673.158 159.315 673.348 161.335 675.228 162.115 C 676.188 162.515 677.958 164.195 677.988 164.815 C 678.018 165.435 677.728 166.535 678.128 166.815 C 678.528 167.095 679.208 166.595 679.808 167.095 C 680.408 167.595 682.188 169.345 682.748 169.795 C 683.308 170.245 684.558 170.975 685.308 170.565 C 687.248 169.665 686.988 166.545 686.908 166.145 C 686.866 165.971 686.866 165.79 686.908 165.615 C 686.908 165.615 685.958 166.615 685.768 166.425 C 685.344 166.083 684.946 165.708 684.578 165.305 C 684.538 165.115 684.858 165.095 685.798 165.115 C 686.738 165.135 686.798 164.925 686.798 164.615 C 686.705 164.148 686.522 163.703 686.258 163.305 C 686.048 163.125 685.738 163.405 685.348 163.405 C 684.065 163.498 682.781 163.224 681.648 162.615 C 681.468 162.435 681.718 161.615 681.718 161.615 C 682.593 161.922 683.538 161.967 684.438 161.745 C 684.908 161.675 685.198 161.515 684.908 160.515 C 683.854 160.945 682.735 161.192 681.598 161.245 C 677.828 161.295 677.938 159.915 678.308 159.095 C 678.518 158.615 679.048 158.445 679.048 158.615 C 679.028 159.095 679.128 159.905 680.968 160.005 C 682.234 160.101 683.507 160.013 684.748 159.745 C 684.682 159.366 684.589 158.991 684.468 158.625 C 684.318 158.115 684.178 157.575 682.998 157.895 C 682.148 158.162 681.343 158.553 680.608 159.055 L 680.288 158.175 C 680.288 158.175 680.158 157.905 680.518 157.615 C 681.345 157.125 682.219 156.719 683.128 156.405 C 684.491 155.982 685.89 155.684 687.308 155.515 C 687.928 155.485 690.048 155.255 690.308 155.565 C 690.969 156.252 691.896 156.617 692.848 156.565 C 694.468 156.665 695.228 156.815 695.788 156.295 C 696.05 156.035 696.263 155.731 696.418 155.395 C 696.418 155.395 696.728 157.155 696.148 157.615 C 695.568 158.075 694.548 158.565 694.258 159.565 C 694.045 160.191 694.045 160.87 694.258 161.495 C 694.408 162.095 694.588 162.365 695.258 162.305 C 695.791 162.306 696.3 162.08 696.658 161.685 C 696.964 162.808 696.251 163.955 695.108 164.175 C 694.717 164.237 694.319 164.237 693.928 164.175 C 693.928 164.175 693.128 168.965 694.778 170.595 C 695.538 171.005 696.748 170.275 697.348 169.825 C 697.948 169.375 699.648 167.635 700.278 167.125 C 700.908 166.615 701.488 167.135 701.988 166.815 C 702.488 166.495 702.088 165.515 702.118 164.815 C 702.148 164.115 703.888 162.515 704.888 162.115 C 706.768 161.295 706.968 159.265 707.448 158.115 C 707.928 156.965 708.068 156.755 708.448 156.915 C 710.548 157.845 710.808 160.195 709.808 163.915 C 709.353 165.059 708.744 166.136 707.998 167.115 C 707.808 167.545 707.738 168.115 707.998 168.115 C 710.923 166.533 713.632 164.581 716.058 162.305 C 716.408 162.035 717.748 165.035 715.748 167.035 C 715.008 167.825 711.258 170.955 710.748 171.405 C 710.238 171.855 710.808 172.045 710.808 172.045 L 710.898 172.045 C 711.158 172.085 716.018 172.175 721.158 171.905 C 721.748 171.875 721.308 174.235 718.748 175.235 C 716.648 176.085 711.738 176.035 710.648 176.155 C 709.558 176.275 711.018 176.845 711.018 176.845 C 711.018 176.845 722.828 180.185 723.368 180.365 C 724.738 180.805 723.098 183.385 718.958 183.235 C 715.053 183.121 711.207 182.259 707.628 180.695 Z M 687.298 159.105 L 689.448 157.375 C 688.6 157.148 687.698 157.233 686.908 157.615 C 687.001 158.121 687.131 158.619 687.298 159.105 Z M 683.778 177.155 C 681.878 176.815 679.408 176.205 676.778 171.625 C 679.258 171.155 679.678 169.905 679.678 169.905 C 679.678 169.905 678.328 169.545 676.448 171.035 C 676.338 167.845 674.448 167.335 674.448 167.335 C 674.448 167.335 673.658 169.095 676.058 171.205 C 673.698 171.705 673.118 172.975 673.118 172.975 C 673.118 172.975 674.368 173.435 676.288 171.835 C 679.138 177.035 682.238 178.155 683.738 178.155 C 683.715 177.823 683.715 177.488 683.738 177.155 Z M 685.818 173.955 C 685.867 175.822 686.064 177.681 686.408 179.515 C 686.825 182.022 687.703 184.429 688.998 186.615 C 689.291 187.132 689.625 187.623 689.998 188.085 C 690.41 187.626 690.784 187.135 691.118 186.615 C 692.413 184.429 693.291 182.022 693.708 179.515 C 694.051 177.681 694.249 175.822 694.298 173.955 C 694.298 173.955 685.838 173.955 685.818 173.955 Z M 696.358 177.155 C 696.392 177.488 696.392 177.823 696.358 178.155 C 697.818 178.155 700.968 177.035 703.818 171.835 C 705.738 173.435 706.988 172.975 706.988 172.975 C 706.988 172.975 706.408 171.705 704.048 171.205 C 706.448 169.095 705.658 167.335 705.658 167.335 C 705.658 167.335 703.758 167.845 703.658 171.035 C 701.778 169.545 700.428 169.905 700.428 169.905 C 700.428 169.905 700.848 171.155 703.328 171.625 C 700.708 176.205 698.228 176.815 696.328 177.155 Z" fill="currentColor"/>
    <path class="ef-header__logo-monogram-front" d="M 695.788 148.735 C 695.788 148.735 692.418 150.155 692.118 150.385 C 691.538 149.885 689.858 148.385 689.668 148.215 C 689.478 148.385 687.798 149.885 687.218 150.385 C 686.918 150.155 683.588 148.735 683.548 148.735 C 683.508 148.735 684.478 150.135 685.058 151.095 C 685.429 151.809 685.588 152.614 685.518 153.415 L 693.838 153.415 C 693.773 152.614 693.933 151.811 694.298 151.095 C 694.878 150.095 695.808 148.735 695.808 148.735" fill="currentColor"/>
    <polygon class="ef-header__logo-monogram-front" points="692.398 183.045 692.398 181.935 689.668 181.935 689.668 179.825 692.108 179.825 692.108 178.715 689.668 178.715 689.668 176.925 692.088 176.925 692.088 175.815 688.018 175.815 688.018 183.045 692.398 183.045" fill="currentColor"/>
  </g>
</svg>