<svg viewBox="0 0 128 128" xmlns="http://www.w3.org/2000/svg" fill-rule="evenodd" clip-rule="evenodd" stroke-linejoin="round" stroke-miterlimit="2"><path d="M60.701 91.036l-12.108 28.223 30.512-36.08h-14.53l8.597-19.652H54.405l-5.812 27.509h12.108zm11.381-45.961c-3.874.23-7.022 3.499-7.022 7.398 0 3.632 2.664 6.756 6.296 7.313h40.319c3.39 0 6.175-2.81 6.175-6.236 0-3.426-2.785-6.247-6.175-6.247l.12.097c-.847 0-1.694.169-2.42.496v-.957c0-5.303-4.36-9.674-9.687-9.674-2.058 0-4.117.69-5.812 1.974-1.453-4.565-5.811-7.689-10.533-7.689-6.054 0-11.14 5-11.14 11.091 0 .823.121 1.635.243 2.434h-.364zM20.503 26.78l-1.453.46c-5.812 2.143-9.565 7.858-9.08 14.009.363 7.955 6.78 14.408 14.77 14.808h36.93a13.478 13.478 0 010-3.124c0-4.468 2.3-8.621 6.175-10.837.363-5.194 3.148-9.928 7.628-12.689-2.059-4.65-6.66-7.676-11.745-7.664h-1.574v-.303-.036c0-6.974-5.69-12.701-12.592-12.701a12.728 12.728 0 00-12.23 9.153 8.931 8.931 0 00-6.78-3.063c-4.843 0-8.838 4.008-8.838 8.875 0 .957.121 1.901.484 2.81l-1.21.302h-.485z" fill-rule="nonzero"/></svg>