<svg viewBox="0 0 128 128" xmlns="http://www.w3.org/2000/svg" fill-rule="evenodd" clip-rule="evenodd" stroke-linejoin="round" stroke-miterlimit="2"><path d="M81.73 94.59c1.182 1.348 2.72 2.531 4.257 3.501a22.96 22.96 0 0012.181 3.5c7.688-.023 15.02-3.725 19.633-9.97l-4.376-4.056c-.828 1.313-2.01 2.484-3.193 3.513l-.119.118-.118.118a18.577 18.577 0 01-10.762 4.021c-.355.012-.592.012-.946.012-2.839 0-5.559-.603-8.16-1.786-2.603-1.194-4.85-2.992-6.624-5.25-.118-.013-.118-.036-.118-.06-.473-.437-1.183-.674-1.892-.674-.828 0-1.656.39-2.247 1.076-3.548 4.483-8.87 7.108-14.665 7.108h-.237c-2.838-.047-5.677-.733-8.16-2.01-2.602-1.325-4.85-3.253-6.623-5.63l-.473-.544c-.119-.047-.119-.083-.237-.13a2.712 2.712 0 00-1.656-.556c-1.064 0-1.892.461-2.483 1.23-1.065 1.55-2.484 2.91-4.021 4.045l-.237.13c-3.075 2.306-6.978 3.536-10.88 3.536h-.355c-2.839-.083-5.677-.78-8.16-2.07-2.603-1.336-4.85-3.264-6.505-5.641l-4.613 3.5 2.72 2.981c2.13 2.164 4.731 3.915 7.688 5.133a21.732 21.732 0 008.633 1.81 29.25 29.25 0 008.042-1.089 24.057 24.057 0 005.677-2.389 18.266 18.266 0 004.494-3.465 25.64 25.64 0 004.613 3.477 23.914 23.914 0 0012.181 3.477c4.613-.012 9.107-1.218 13.01-3.489 1.655-.958 3.311-2.117 4.73-3.477zM47.194 80.848c1.42 1.383 2.839 2.601 4.494 3.607a23.268 23.268 0 0012.3 3.619 29.398 29.398 0 0013.364-3.17c1.656-.851 3.312-1.916 4.731-3.17 1.538 1.148 3.312 2.165 5.086 3.052 3.311 1.821 7.096 2.862 10.998 3.051 7.688-.023 15.02-3.725 19.633-9.97l-4.021-3.772a22.677 22.677 0 01-3.548 3.666 19.722 19.722 0 01-5.44 2.968c-2.011.663-4.022.994-6.032 1.006h-.119c-2.838 0-5.558-.615-8.16-1.81-2.602-1.206-4.849-3.027-6.623-5.298l-.118-.095c-1.301-1.052-3.193-.887-4.258.367-1.064 1.336-2.247 2.53-3.666 3.536-3.193 2.33-6.978 3.583-10.88 3.572-.237 0-.355 0-.592-.012a18.85 18.85 0 01-8.042-2.058c-2.484-1.325-4.73-3.24-6.505-5.582l-.473-.532c-.118-.048-.118-.095-.236-.13-1.301-.958-3.075-.651-4.14.662-1.064 1.56-2.483 2.921-4.02 4.056l-.12.095c-3.192 2.377-7.095 3.666-10.998 3.654-.355 0-.71-.011-1.064-.023-5.559-.272-10.644-3.04-13.956-7.51l-4.612 3.512 2.483 2.709a25.755 25.755 0 007.333 5.144c2.602 1.23 5.44 1.869 8.397 1.893a32.873 32.873 0 008.515-1.1c2.01-.556 4.021-1.372 5.795-2.425a17.897 17.897 0 004.494-3.512zm16.912-53.41L30.401 57.644v16.983c.473.047.946.059 1.42.059A16.203 16.203 0 0045.54 67.08c.473-.674 1.182-1.088 2.01-1.076h.355c.946 0 1.774.39 2.483 1.076 1.065 1.313 2.366 2.484 3.785 3.501v-8.894c0-6.067 4.967-11.058 10.999-11.058 6.15 0 11.117 4.991 11.117 11.058v9.698c1.183-.402 2.247-1.277 2.838-2.436.237-.461.592-.91.946-1.336.828-1.183 2.602-1.431 3.785-.544l1.064.91a24.79 24.79 0 008.397 5.854 17.22 17.22 0 003.785.805V57.644L64.107 27.438zm.237-5.665l35.125 33.174c.473.485 1.183.769 1.893.804a3.227 3.227 0 002.365-1.076 2.976 2.976 0 00.355-4.045L90.008 37.42V23.122a3.763 3.763 0 00-3.785-3.773h-4.02c-1.893 0-3.549 1.585-3.549 3.5v4.838l-14.192-11.85-41.275 34.521c-.591.544-.946 1.301-.946 2.094 0 .78.236 1.537.828 2.105.591.568 1.3.899 2.129.899.354 0 .827-.083 1.182-.237l.473-.544 37.491-32.902z" fill-rule="nonzero"/></svg>