<svg viewBox="125.56 130.865 176.001 176" width="176.001" height="176" xmlns="http://www.w3.org/2000/svg"><path fill="#039" d="M198.893 218.865h-58.666c-8.086 0-14.667-6.58-14.667-14.666v-58.667c0-8.086 6.581-14.667 14.667-14.667h58.667c8.087 0 14.667 6.581 14.667 14.667v58.667c-.002 8.086-6.582 14.666-14.668 14.666z"/><path fill="#FFF" d="M172.378 206.316c4.813-.47 9.311-2.001 12.881-4.388 1.794-1.2 4.323-3.682 5.425-5.32 1.607-2.396 2.774-5.274 3.399-8.385.242-1.202.271-3.32.321-22.978l.054-21.651h-14.834v19.824c0 13.031-.058 20.336-.165 21.321-.197 1.763-.776 3.867-1.366 4.956-.738 1.369-2.102 2.671-3.521 3.366-3.909 1.915-9.631 1.226-12.343-1.486-1.38-1.381-2.33-3.605-2.728-6.396-.097-.684-.157-8.703-.159-21.341l-.003-20.246H144.67v20.504c0 20.571.04 22.307.566 24.905 1.299 6.418 5.303 11.526 11.434 14.586 4.492 2.249 10.31 3.257 15.708 2.729z"/><path fill="#006F35" d="M257.561 306.865c-24.268 0-44-19.731-44-44 0-24.267 19.732-44 44-44 24.267 0 44 19.733 44 44 .001 24.269-19.731 44-44 44z"/><path fill="#FFF" d="M246.422 243.371c0-3.819 3.501-7.081 9.628-7.081 10.821 0 20.049 5.809 26.176 12.413v-11.537c-7.081-5.49-15.993-8.752-25.939-8.752-11.935 0-25.223 7.32-25.223 20.926 0 25.938 39.385 16.628 39.385 31.667 0 3.979-5.25 7.718-11.774 7.718-10.662 0-21.244-6.444-27.053-14.799v13.844c6.127 5.49 17.346 9.868 27.053 9.868 17.424 0 27.769-12.414 27.769-23.076.001-26.416-40.022-15.118-40.022-31.191z"/></svg>