<svg version="1.1" id="prefix__layer" xmlns="http://www.w3.org/2000/svg" x="0" y="0" viewBox="0 0 652 652" xml:space="preserve"><style>.prefix__st1{fill:#15296b}.prefix__st2{fill:#fff}</style><path d="M407.2 264.2h-15.3l-35.5 68.2-1.9-68.2h-79.9c26.7 0 23.1 22.3 23.1 27.3 0 16.6-8.6 29.5-25.7 33.9 1.2 1.6 6.5 6.7 7.2 8.4 2.6 3.8.7 9.2.7 13.7 0 10.1-5.3 20-5.3 30 0 3.4 1.2 7.1 2.7 10.1H301l25.5-86.5 1.4 86.5h24.9l48.1-87.4-25.9 87.3h48l34.4-123.4h-50.2z" fill="#bfe0d3"/><path class="prefix__st1" d="M204.3 294.5l-6.5 22.3h32.5c9.4 0 14.4-3.1 16.6-10.8 2.6-9.3-2.7-11.5-11-11.5h-31.6zM64.2 264.2h-2L26.3 387.5h1.9l36-123.3zm11.5 0h-2.6L37.3 387.5h2.4l36-123.3zm11.5 0h-3.1L48.3 387.5h3.1l35.8-123.3zm11.5 0h-3.8L59.1 387.5h3.8l35.8-123.3zm11.4 0h-4.3L70 387.5h4.3l35.8-123.3zm11.5 0h-4.8L81 387.5h4.8l35.8-123.3zm11.5 0h-5.3L92 387.5h5.3l35.8-123.3zm11.5 0h-5.8l-36 123.4h6l35.8-123.4zm11.4 0h-6.5l-35.8 123.4h6.5L156 264.2zm11.5 0h-7l-35.8 123.4h7l35.8-123.4zm62.2 97.8c2.1-9.1.5-15.3-8.4-15.3h-32l-12 40.8h47.4c-.7-3.6 1.9-11.5 5-25.5m98.1 25.5l-1.4-86.5-25.4 86.5h26.8zm73-87.3l-48.1 87.4h22.2l25.9-87.4zm-8.9-36h-37.4l1.9 68.2 35.5-68.2zm122.7 0h-57.3l-34.4 123.4h8.6L466 264.2l-.8 77.3 49.4-77.3zm111.7 93c0-18.7-36.5-76.7-50-89.3-1.5-1.5-3.6-2.7-5.5-3.8l-90.6 123.4H579c21.1 0 47.3-9.7 47.3-30.3"/><path class="prefix__st2" d="M514.6 264.2l-49.3 77.3.7-77.3-34.5 123.3h48.7l90.6-123.3z"/><path class="prefix__st1" d="M304.8 287.7c0-22.9-26.6-23.5-26.6-23.5h-3.6s22.3 1.7 22.3 23.5c0 18.3-8.4 33.6-27.4 37.5 8.6 5.5 9.3 14.8 9.3 17.3 0 11.7-6.7 22.8-6.7 34.4 0 3.6.7 7.4 2.4 10.6h7.8c-1.7-3.3-2.4-7-2.4-10.6 0-11.6 6.7-22.8 6.7-34.4 0-2.6-.7-11.8-9.3-17.3 19.1-4 27.5-19.2 27.5-37.5"/><path class="prefix__st2" d="M230.4 316.8h-32.6l6.5-22.3H236c8.2 0 13.5 2.2 11 11.5-2.2 7.7-7.2 10.8-16.6 10.8m44.2-52.6H167.5l-35.8 123.4h45.6l12-40.8h32c8.9 0 10.4 6.2 8.4 15.3-3.1 14-5.7 21.9-5 25.5h49.8c-1.7-3.3-2.4-7-2.4-10.6 0-11.6 6.7-22.8 6.7-34.4 0-2.6-.7-11.8-9.3-17.3 19-3.9 27.4-19.2 27.4-37.5.1-21.9-22.3-23.6-22.3-23.6"/><g><path class="prefix__st1" d="M163.8 264.2v1.3H570l.9-1.3zM128.9 386.3v1.2h406.2l.9-1.2z"/></g></svg>