<?xml version="1.0" encoding="utf-8"?>
<svg viewBox="20.994 117.217 439.1 123.5" width="439.1" height="123.5" xmlns="http://www.w3.org/2000/svg">
    <path
        d="M 119.694 169.917 L 87.094 169.917 L 93.594 147.617 L 125.294 147.617 C 133.494 147.617 138.794 149.817 136.294 159.117 C 134.094 166.817 129.094 169.917 119.694 169.917 M 163.894 117.317 L 56.794 117.317 L 20.994 240.717 L 66.594 240.717 L 78.594 199.917 L 110.594 199.917 C 119.494 199.917 120.994 206.117 118.994 215.217 C 115.894 229.217 113.294 237.117 113.994 240.717 L 163.794 240.717 C 162.094 237.417 161.394 233.717 161.394 230.117 C 161.394 218.517 168.094 207.317 168.094 195.717 C 168.094 193.117 167.394 183.917 158.794 178.417 C 177.794 174.517 186.194 159.217 186.194 140.917 C 186.294 119.017 163.894 117.317 163.894 117.317"
        fill="currentColor" id="svg_r" />
    <path
        d="M 296.494 117.217 L 346.694 117.217 L 312.294 240.617 L 264.294 240.617 L 290.194 153.317 L 242.094 240.717 L 217.194 240.717 L 215.794 154.217 L 190.294 240.717 L 166.594 240.717 C 166.577 240.684 166.561 240.65 166.544 240.617 L 171.594 240.617 C 169.894 237.317 169.194 233.617 169.194 230.017 C 169.194 218.417 175.894 207.217 175.894 195.617 C 175.894 193.017 175.194 183.817 166.594 178.317 C 185.694 174.317 194.094 159.117 194.094 140.817 C 194.094 117.917 167.494 117.317 167.494 117.317 L 243.794 117.317 L 245.694 185.517 L 281.194 117.317 L 296.494 117.317 Z"
        fill="currentColor" id="svg_m" />
    <path
        d="M 403.894 117.317 L 354.594 194.617 L 355.294 117.317 L 320.794 240.617 L 369.494 240.617 L 460.094 117.317 L 403.894 117.317 L 403.894 117.317 Z"
        fill="currentColor" id="svg_v" />
</svg>