<?xml version="1.0" encoding="utf-8"?>
<svg viewBox="0 0.8 24 22.38" width="24" height="22.38" xmlns="http://www.w3.org/2000/svg">
  <path fill="currentColor" d="M 12 10.4 C 10.68 10.4 9.6 11.48 9.6 12.8 C 9.6 14.12 10.68 15.2 12 15.2 C 13.32 15.2 14.4 14.12 14.4 12.8 C 14.4 11.48 13.32 10.4 12 10.4 Z M 19.2 12.8 C 19.2 8.828 15.972 5.6 12 5.6 C 8.028 5.6 4.8 8.828 4.8 12.8 C 4.8 15.464 6.252 17.78 8.4 19.028 L 9.6 16.94 C 8.172 16.1 7.2 14.576 7.2 12.8 C 7.2 10.148 9.348 8 12 8 C 14.652 8 16.8 10.148 16.8 12.8 C 16.8 14.576 15.828 16.1 14.4 16.94 L 15.6 19.028 C 17.748 17.78 19.2 15.464 19.2 12.8 Z M 12 0.8 C 5.376 0.8 0 6.176 0 12.8 C 0 17.24 2.412 21.104 5.988 23.18 L 7.188 21.104 C 4.332 19.436 2.4 16.352 2.4 12.8 C 2.4 7.496 6.696 3.2 12 3.2 C 17.304 3.2 21.6 7.496 21.6 12.8 C 21.6 16.352 19.668 19.436 16.8 21.104 L 18 23.18 C 21.588 21.104 24 17.24 24 12.8 C 24 6.176 18.624 0.8 12 0.8 Z"/>
</svg>